<svg width="333" height="363" viewBox="0 0 333 363" fill="none" xmlns="http://www.w3.org/2000/svg">
<g opacity="0.0426912">
<path opacity="0.0426912" d="M101.506 0.285156C102.887 0.285156 104.006 1.40416 104.006 2.78516C104.006 4.16616 102.887 5.28516 101.506 5.28516C100.125 5.28516 99.0061 4.16616 99.0061 2.78516C99.0061 1.40416 100.125 0.285156 101.506 0.285156Z" fill="white"/>
</g>
<g opacity="0.01">
<path opacity="0.01" d="M331.006 268.285C332.11 268.285 333.006 269.181 333.006 270.285C333.006 271.389 332.11 272.285 331.006 272.285C329.902 272.285 329.006 271.389 329.006 270.285C329.006 269.181 329.902 268.285 331.006 268.285Z" fill="white"/>
</g>
<g opacity="0.938282">
<path opacity="0.938282" d="M2.50586 88.2849C3.88686 88.2849 5.00586 89.4039 5.00586 90.7849C5.00586 92.1659 3.88686 93.2849 2.50586 93.2849C1.12486 93.2849 0.00585938 92.1659 0.00585938 90.7849C0.00585938 89.4039 1.12486 88.2849 2.50586 88.2849Z" fill="white"/>
</g>
<g opacity="0.0885807">
<path opacity="0.0885807" d="M13.506 160.285C14.887 160.285 16.006 161.404 16.006 162.785C16.006 164.166 14.887 165.285 13.506 165.285C12.1249 165.285 11.0059 164.166 11.0059 162.785C11.0059 161.404 12.1249 160.285 13.506 160.285Z" fill="white"/>
</g>
<g opacity="0.01">
<path opacity="0.01" d="M2.50586 221.285C3.88686 221.285 5.00586 222.404 5.00586 223.785C5.00586 225.166 3.88686 226.285 2.50586 226.285C1.12486 226.285 0.00585938 225.166 0.00585938 223.785C0.00585938 222.404 1.12486 221.285 2.50586 221.285Z" fill="white"/>
</g>
<g opacity="0.255426">
<path opacity="0.255426" d="M41.5061 252.285C42.8871 252.285 44.0061 253.404 44.0061 254.785C44.0061 256.166 42.8871 257.285 41.5061 257.285C40.1251 257.285 39.0061 256.166 39.0061 254.785C39.0061 253.404 40.1251 252.285 41.5061 252.285Z" fill="white"/>
</g>
<g opacity="0.0426912">
<path opacity="0.0426912" d="M102.506 281.285C103.887 281.285 105.006 282.404 105.006 283.785C105.006 285.166 103.887 286.285 102.506 286.285C101.125 286.285 100.006 285.166 100.006 283.785C100.006 282.404 101.125 281.285 102.506 281.285Z" fill="white"/>
</g>
<g opacity="0.762553">
<path opacity="0.762553" d="M155.506 324.285C156.887 324.285 158.006 325.404 158.006 326.785C158.006 328.166 156.887 329.285 155.506 329.285C154.125 329.285 153.006 328.166 153.006 326.785C153.006 325.404 154.125 324.285 155.506 324.285Z" fill="white"/>
</g>
<g opacity="0.436254">
<path opacity="0.436254" d="M245.506 318.285C246.887 318.285 248.006 319.404 248.006 320.785C248.006 322.166 246.887 323.285 245.506 323.285C244.125 323.285 243.006 322.166 243.006 320.785C243.006 319.404 244.125 318.285 245.506 318.285Z" fill="white"/>
</g>
<g opacity="0.98191">
<path opacity="0.98191" d="M204.506 357.285C205.887 357.285 207.006 358.404 207.006 359.785C207.006 361.166 205.887 362.285 204.506 362.285C203.125 362.285 202.006 361.166 202.006 359.785C202.006 358.404 203.125 357.285 204.506 357.285Z" fill="white"/>
</g>
<g opacity="0.147607">
<path opacity="0.147607" d="M306.506 221.285C307.887 221.285 309.006 222.404 309.006 223.785C309.006 225.166 307.887 226.285 306.506 226.285C305.125 226.285 304.006 225.166 304.006 223.785C304.006 222.404 305.125 221.285 306.506 221.285Z" fill="white"/>
</g>
<g opacity="0.336596">
<path opacity="0.336596" d="M295.506 97.2849C296.887 97.2849 298.006 98.4039 298.006 99.7849C298.006 101.166 296.887 102.285 295.506 102.285C294.125 102.285 293.006 101.166 293.006 99.7849C293.006 98.4039 294.125 97.2849 295.506 97.2849Z" fill="white"/>
</g>
<g opacity="0.0426912">
<path opacity="0.0426912" d="M282.506 40.2849C283.887 40.2849 285.006 41.4039 285.006 42.7849C285.006 44.1659 283.887 45.2849 282.506 45.2849C281.125 45.2849 280.006 44.1659 280.006 42.7849C280.006 41.4039 281.125 40.2849 282.506 40.2849Z" fill="white"/>
</g>
<g opacity="0.01">
<path opacity="0.01" d="M165.506 31.2849C166.887 31.2849 168.006 32.4039 168.006 33.7849C168.006 35.1659 166.887 36.2849 165.506 36.2849C164.125 36.2849 163.006 35.1659 163.006 33.7849C163.006 32.4039 164.125 31.2849 165.506 31.2849Z" fill="white"/>
</g>
<g opacity="0.946472">
<path opacity="0.946472" d="M72.5061 66.2849C73.8871 66.2849 75.0061 67.4039 75.0061 68.7849C75.0061 70.1659 73.8871 71.2849 72.5061 71.2849C71.1251 71.2849 70.0061 70.1659 70.0061 68.7849C70.0061 67.4039 71.1251 66.2849 72.5061 66.2849Z" fill="white"/>
</g>
<g opacity="0.147607">
<path opacity="0.147607" d="M55.5061 141.285C56.8871 141.285 58.0061 142.404 58.0061 143.785C58.0061 145.166 56.8871 146.285 55.5061 146.285C54.1251 146.285 53.0061 145.166 53.0061 143.785C53.0061 142.404 54.1251 141.285 55.5061 141.285Z" fill="white"/>
</g>
<g opacity="0.75">
<path d="M311.332 209.808C322.802 81.3811 254.988 19.8741 163.834 52.2601C79.2879 82.3021 53.3799 37.1701 16.4389 110.653C-20.2666 183.665 32.0239 280.492 101.668 321.575C171.144 362.484 302.687 306.112 311.332 209.808Z" stroke="#EBE6D9"/>
</g>
<g opacity="0.75">
<path d="M278.714 87.434C183.531 0.45491 93.504 17.0995 64 109.227C36.637 194.677 -14.9617 187.921 21.0831 261.848C56.8971 335.301 165.603 352.416 240.495 321.934C315.149 291.48 350.063 152.691 278.714 87.434Z" stroke="white" stroke-opacity="0.25" stroke-miterlimit="3"/>
</g>
<g opacity="0.75">
<path d="M298.125 157.412C248.799 38.75 153.757 -16.335 82.3819 47.998C15.7299 108.073 14.8459 105.839 16.7979 188.181C18.7409 269.997 133.872 345.092 214.796 348.943C295.026 352.759 335.06 246.44 298.125 157.412Z" stroke="#EBE6D9"/>
</g>
<g opacity="0.5">
<path d="M61.3579 117.813C19.3509 240.237 54.9869 342.725 151.072 341.876C240.799 341.085 240.242 343.787 293.573 280.381C346.561 217.376 309.763 85.274 251.172 28.718C193.077 -27.3517 92.9349 25.909 61.3579 117.813Z" stroke="#EBE6D9"/>
</g>
<g opacity="0.75">
<path d="M278.714 87.434C183.531 0.45491 93.504 17.0995 64 109.227C36.637 194.677 -14.9617 187.921 21.0831 261.848C56.8971 335.301 165.603 352.416 240.495 321.934C315.149 291.48 350.063 152.691 278.714 87.434Z" stroke="#EBE6D9" stroke-opacity="0.25" stroke-miterlimit="3"/>
</g>
<path d="M267.796 267.963C332.264 156.798 318.455 47.818 224.022 30.055C135.838 13.4667 137.079 11.4087 72.776 62.88C8.8876 114.024 18.961 251.112 64.957 317.805C110.56 383.923 219.385 351.309 267.796 267.963Z" stroke="#EBE6D9" stroke-opacity="0.25" stroke-linecap="round" stroke-linejoin="round"/>
<path d="M199.305 308.325C135.83 323.964 71.0561 282.935 54.7521 216.762C38.4481 150.59 76.7471 84.1649 140.222 68.5249C203.697 52.8859 268.471 93.9149 284.775 160.088C301.079 226.26 262.78 292.685 199.305 308.325Z" stroke="#EBE6D9" strokeWidth="0.649708"/>
<path d="M170.613 63.9021C236.139 63.9021 289.342 117.105 289.342 182.632C289.342 248.158 236.139 301.361 170.613 301.361C105.086 301.361 51.8831 248.158 51.8831 182.632C51.8831 117.105 105.086 63.9021 170.613 63.9021Z" fill="#EBE5D9" fill-opacity="0.25"/>
<g clip-path="url(#clip0_3882_178)">
<path opacity="0.1" d="M168 346.387C258.022 346.387 331 273.066 331 182.618C331 92.1714 258.022 18.8496 168 18.8496C77.9776 18.8496 5 92.1714 5 182.618C5 273.066 77.9776 346.387 168 346.387Z" fill="url(#paint0_linear_3882_178)"/>
<path opacity="0.1" d="M168 327.378C247.573 327.378 312.08 262.567 312.08 182.618C312.08 102.67 247.573 37.8584 168 37.8584C88.4267 37.8584 23.9197 102.67 23.9197 182.618C23.9197 262.567 88.4267 327.378 168 327.378Z" fill="url(#paint1_linear_3882_178)"/>
<g filter="url(#filter0_dd_3882_178)">
<path d="M168 311.294C238.732 311.294 296.071 253.684 296.071 182.618C296.071 111.553 238.732 53.9429 168 53.9429C97.268 53.9429 39.9285 111.553 39.9285 182.618C39.9285 253.684 97.268 311.294 168 311.294Z" fill="url(#paint2_linear_3882_178)"/>
</g>
<path d="M90.2302 194.371V171.271H105.168C106.677 171.271 107.884 171.766 108.789 172.756C109.694 173.746 110.147 175.066 110.147 176.716V181.996C110.147 183.646 109.694 184.966 108.789 185.956C107.884 186.946 106.677 187.441 105.168 187.441H95.0585V194.371H90.2302ZM95.0585 182.821H103.357C104.665 182.821 105.319 182.106 105.319 180.676V178.036C105.319 176.606 104.665 175.891 103.357 175.891H95.0585V182.821ZM115.573 194.371V171.271H130.812C132.321 171.271 133.528 171.766 134.434 172.756C135.339 173.746 135.792 175.066 135.792 176.716V180.676C135.792 182.634 135.108 184.064 133.74 184.966C133.156 185.34 132.482 185.615 131.718 185.791L136.244 191.731V194.371H131.869L125.984 186.121H120.401V194.371H115.573ZM120.401 181.501H129.002C130.309 181.501 130.963 180.786 130.963 179.356V178.036C130.963 176.606 130.309 175.891 129.002 175.891H120.401V181.501ZM141.535 194.371V171.271H159.641V174.241L158.132 175.891H146.363V180.511H156.321V184.966H146.363V189.751H159.641V194.371H141.535ZM164.608 194.371V171.271H180.149C181.658 171.271 182.865 171.766 183.771 172.756C184.676 173.746 185.129 175.066 185.129 176.716V188.926C185.129 190.576 184.676 191.896 183.771 192.886C182.865 193.876 181.658 194.371 180.149 194.371H164.608ZM169.437 189.751H178.339C179.647 189.751 180.3 189.036 180.3 187.606V178.036C180.3 176.606 179.647 175.891 178.339 175.891H169.437V189.751ZM190.865 194.371V171.271H195.693V194.371H190.865ZM201.436 188.926V176.716C201.436 175.066 201.889 173.746 202.794 172.756C203.699 171.766 204.906 171.271 206.415 171.271H220.146V174.241L218.637 175.891H208.226C206.918 175.891 206.264 176.606 206.264 178.036V187.606C206.264 189.036 206.918 189.751 208.226 189.751H220.146V194.371H206.415C204.906 194.371 203.699 193.876 202.794 192.886C201.889 191.896 201.436 190.576 201.436 188.926ZM231.171 194.371V175.891H223.325V171.271H243.845V174.241L242.336 175.891H235.999V194.371H231.171Z" fill="black"/>
</g>
<defs>
<filter id="filter0_dd_3882_178" x="23.9285" y="37.9429" width="288.143" height="289.351" filterUnits="userSpaceOnUse" color-interpolation-filters="sRGB">
<feFlood flood-opacity="0" result="BackgroundImageFix"/>
<feColorMatrix in="SourceAlpha" type="matrix" values="0 0 0 0 0 0 0 0 0 0 0 0 0 0 0 0 0 0 127 0" result="hardAlpha"/>
<feOffset/>
<feGaussianBlur stdDeviation="8"/>
<feColorMatrix type="matrix" values="0 0 0 0 1 0 0 0 0 0.866667 0 0 0 0 0 0 0 0 0.7 0"/>
<feBlend mode="normal" in2="BackgroundImageFix" result="effect1_dropShadow_3882_178"/>
<feColorMatrix in="SourceAlpha" type="matrix" values="0 0 0 0 0 0 0 0 0 0 0 0 0 0 0 0 0 0 127 0" result="hardAlpha"/>
<feOffset/>
<feGaussianBlur stdDeviation="2"/>
<feColorMatrix type="matrix" values="0 0 0 0 1 0 0 0 0 0.866667 0 0 0 0 0 0 0 0 0.5 0"/>
<feBlend mode="normal" in2="effect1_dropShadow_3882_178" result="effect2_dropShadow_3882_178"/>
<feBlend mode="normal" in="SourceGraphic" in2="effect2_dropShadow_3882_178" result="shape"/>
</filter>
<linearGradient id="paint0_linear_3882_178" x1="168" y1="18.8493" x2="168" y2="346.387" gradientUnits="userSpaceOnUse">
<stop stop-color="#FFDD00"/>
<stop offset="1" stop-color="#FFC700"/>
</linearGradient>
<linearGradient id="paint1_linear_3882_178" x1="168" y1="37.8581" x2="168" y2="327.378" gradientUnits="userSpaceOnUse">
<stop stop-color="#FFDD00"/>
<stop offset="1" stop-color="#FFC700"/>
</linearGradient>
<linearGradient id="paint2_linear_3882_178" x1="168" y1="53.9426" x2="168" y2="311.294" gradientUnits="userSpaceOnUse">
<stop stop-color="#FFDD00"/>
<stop offset="1" stop-color="#FFC700"/>
</linearGradient>
<clipPath id="clip0_3882_178">
<rect width="326" height="329" fill="white" transform="translate(5 18)"/>
</clipPath>
</defs>
</svg>
