<?xml version="1.0" encoding="UTF-8"?> <svg xmlns="http://www.w3.org/2000/svg" width="363" height="63" viewBox="0 0 363 63" fill="none"> <g clip-path="url(#clip0)"> <path d="M-1.68835 11.8148H26.6337C32.135 11.8148 35.531 15.2396 35.531 20.7877V29.7605C35.531 35.3086 32.135 38.7333 26.6337 38.7333H9.85779V48.8021H-1.68835V11.8148ZM23.9848 28.7331V21.8836H9.85779V28.7331H23.9848Z" fill="white"></path> <path d="M53.3934 11.8148H82.2588C87.7602 11.8148 91.1561 15.2396 91.1561 20.7877V27.6372C91.1561 31.0619 89.6619 33.1167 88.0319 34.2127C87.1489 34.8291 86.0622 35.3086 84.9076 35.5826L91.9711 43.254V48.8021H81.5117L71.5277 36.61H64.8716V48.8021H53.3255V11.8148H53.3934ZM79.61 26.6097V21.8836H64.8716V26.6097H79.61Z" fill="white"></path> <path d="M164.78 38.5278H189.435V36.4045L173.678 34.2812C167.565 33.4592 164.78 30.5824 164.78 25.0343V20.7877C164.78 15.2396 168.176 11.8148 173.678 11.8148H200.437V18.3903L196.77 22.0891H176.87V24.2124L192.627 26.3357C198.739 27.1577 201.524 30.0345 201.524 35.5826V39.8293C201.524 45.3773 198.128 48.8021 192.627 48.8021H164.848V38.5278H164.78Z" fill="white"></path> <path d="M218.844 11.8148H247.166C252.668 11.8148 256.064 15.2396 256.064 20.7877V29.7605C256.064 35.3086 252.668 38.7333 247.166 38.7333H230.39V48.8021H218.844V11.8148ZM244.517 28.7331V21.8836H230.39V28.7331H244.517Z" fill="white"></path> <path d="M273.858 11.8148H307.953V18.1849L304.286 21.8836H285.404V25.5823H301.637V35.1031H285.404V38.8018H307.953V48.8706H273.858V11.8148Z" fill="white"></path> <path d="M325.542 11.8148H354.407C359.908 11.8148 363.304 15.2396 363.304 20.7877V27.6372C363.304 31.0619 361.81 33.1167 360.18 34.2127C359.297 34.8291 358.211 35.3086 357.056 35.5826L364.119 43.254V48.8021H353.66L343.676 36.61H337.156V48.8021H325.61V11.8148H325.542ZM351.758 26.6097V21.8836H337.088V26.6097H351.758Z" fill="white"></path> <path d="M139.241 17.9789L139.105 17.8419C139.037 17.7735 139.037 17.7735 138.97 17.705L132.042 24.6914C132.11 24.7599 132.11 24.7599 132.178 24.8284L132.314 24.9654C140.124 32.9108 141.686 41.3357 139.377 43.6645C138.562 44.4865 137.136 44.692 136.117 44.6235C131.702 44.555 125.725 41.4042 120.835 36.5411L120.699 36.4041C120.632 36.3356 120.632 36.3356 120.564 36.2671L113.636 43.2536C113.704 43.3221 113.704 43.3221 113.772 43.3906L113.908 43.5276C120.699 50.3086 128.918 54.4183 135.913 54.4868C135.981 54.4868 136.117 54.4868 136.185 54.4868C140.26 54.4868 143.724 53.1168 146.237 50.5825C149.972 46.8153 151.059 41.0617 149.225 34.4177C147.731 28.8011 144.131 22.9106 139.241 17.9789Z" fill="url(#paint0_linear)"></path> <path d="M112.552 20.8559C112.552 19.8285 112.688 18.3901 113.503 17.5681C114.182 16.8832 115.268 16.6092 116.627 16.6092C117.646 16.6092 118.8 16.8147 120.023 17.1572C123.962 18.2531 128.309 20.9929 132.044 24.7601L138.972 17.7736C134.014 12.842 128.241 9.28024 122.672 7.70486C116.083 5.85549 110.378 6.88292 106.575 10.7186C103.994 13.3214 102.703 16.8832 102.703 21.1299C102.839 28.2533 106.847 36.5412 113.57 43.3907L120.566 36.1988C115.744 31.3356 112.62 25.3081 112.552 20.8559Z" fill="url(#paint1_linear)"></path> </g> <defs> <linearGradient id="paint0_linear" x1="127.385" y1="48.4598" x2="154.264" y2="23.5962" gradientUnits="userSpaceOnUse"> <stop stop-color="#00FFFF"></stop> <stop offset="1" stop-color="#5900F7" stop-opacity="0"></stop> </linearGradient> <linearGradient id="paint1_linear" x1="94.452" y1="40.0833" x2="128.142" y2="12.1323" gradientUnits="userSpaceOnUse"> <stop stop-color="#5900F7" stop-opacity="0"></stop> <stop offset="1" stop-color="white"></stop> </linearGradient> <clipPath id="clip0"> <rect width="363" height="63" fill="white"></rect> </clipPath> </defs> </svg> 