<?xml version="1.0" encoding="UTF-8"?> <svg xmlns="http://www.w3.org/2000/svg" width="36" height="88" viewBox="0 0 36 88" fill="none"> <path d="M18 60.56C17.6181 60.56 17.2518 60.7117 16.9818 60.9818C16.7117 61.2518 16.56 61.6181 16.56 62V64.88C16.56 65.2619 16.7117 65.6282 16.9818 65.8982C17.2518 66.1683 17.6181 66.32 18 66.32C18.3819 66.32 18.7482 66.1683 19.0182 65.8982C19.2883 65.6282 19.44 65.2619 19.44 64.88V62C19.44 61.6181 19.2883 61.2518 19.0182 60.9818C18.7482 60.7117 18.3819 60.56 18 60.56ZM18 54.8C15.3266 54.8 12.7627 55.862 10.8724 57.7524C8.982 59.6427 7.92 62.2066 7.92 64.88V73.52C7.92 76.1934 8.982 78.7573 10.8724 80.6476C12.7627 82.538 15.3266 83.6 18 83.6C20.6734 83.6 23.2373 82.538 25.1276 80.6476C27.018 78.7573 28.08 76.1934 28.08 73.52V64.88C28.08 62.2066 27.018 59.6427 25.1276 57.7524C23.2373 55.862 20.6734 54.8 18 54.8ZM25.2 73.52C25.2 75.4295 24.4414 77.2609 23.0912 78.6112C21.7409 79.9614 19.9096 80.72 18 80.72C16.0904 80.72 14.2591 79.9614 12.9088 78.6112C11.5586 77.2609 10.8 75.4295 10.8 73.52V64.88C10.8 62.9704 11.5586 61.1391 12.9088 59.7888C14.2591 58.4386 16.0904 57.68 18 57.68C19.9096 57.68 21.7409 58.4386 23.0912 59.7888C24.4414 61.1391 25.2 62.9704 25.2 64.88V73.52Z" fill="#EDEDF5"></path> <path d="M20.26 7.1373L20.26 8.2173C20.732 8.2013 21.136 8.1093 21.472 7.9413C21.816 7.7813 22.1 7.5573 22.324 7.2693C22.548 6.9893 22.712 6.6613 22.816 6.2853C22.92 5.9093 22.972 5.5013 22.972 5.0613C22.972 4.6693 22.92 4.2853 22.816 3.9093C22.72 3.5413 22.568 3.2093 22.36 2.9133C22.16 2.6253 21.9 2.3933 21.58 2.2173C21.268 2.0413 20.896 1.9533 20.464 1.9533C20.072 1.9533 19.744 2.0293 19.48 2.1813C19.224 2.3413 19.012 2.5493 18.844 2.8053C18.684 3.0693 18.552 3.3653 18.448 3.6933C18.352 4.0213 18.264 4.3533 18.184 4.6893C18.112 5.0333 18.04 5.3693 17.968 5.6973C17.896 6.0253 17.8 6.3173 17.68 6.5733C17.568 6.8373 17.42 7.0453 17.236 7.1973C17.052 7.3573 16.812 7.4373 16.516 7.4373C16.204 7.4373 15.948 7.3733 15.748 7.2453C15.548 7.1173 15.388 6.9493 15.268 6.7413C15.156 6.5333 15.076 6.2973 15.028 6.0333C14.98 5.7773 14.956 5.5213 14.956 5.2653C14.956 4.9453 14.996 4.6333 15.076 4.3293C15.156 4.0253 15.28 3.7573 15.448 3.5253C15.616 3.3013 15.828 3.1173 16.084 2.9733C16.348 2.8373 16.66 2.7693 17.02 2.7693L17.02 1.6893C16.5 1.6893 16.048 1.7813 15.664 1.9653C15.288 2.1573 14.976 2.4133 14.728 2.7333C14.488 3.0613 14.308 3.4373 14.188 3.8613C14.068 4.2933 14.008 4.7493 14.008 5.2293C14.008 5.6213 14.056 6.0133 14.152 6.4053C14.24 6.8053 14.384 7.1653 14.584 7.4853C14.792 7.8053 15.056 8.0653 15.376 8.2653C15.704 8.4733 16.096 8.5773 16.552 8.5773C16.976 8.5773 17.328 8.4973 17.608 8.3373C17.888 8.1853 18.12 7.9773 18.304 7.7133C18.488 7.4573 18.632 7.1653 18.736 6.8373C18.848 6.5093 18.944 6.1733 19.024 5.8293C19.104 5.4933 19.176 5.1613 19.24 4.8333C19.312 4.5053 19.4 4.2093 19.504 3.9453C19.608 3.6893 19.74 3.4813 19.9 3.3213C20.068 3.1693 20.284 3.0933 20.548 3.0933C20.828 3.0933 21.06 3.1453 21.244 3.2493C21.436 3.3613 21.588 3.5053 21.7 3.6813C21.812 3.8653 21.892 4.0733 21.94 4.3053C21.988 4.5373 22.012 4.7733 22.012 5.0133C22.012 5.6053 21.872 6.0893 21.592 6.4653C21.32 6.8493 20.876 7.0733 20.26 7.1373ZM20.188 15.9866L20.188 17.1266C20.644 17.0626 21.044 16.9266 21.388 16.7186C21.74 16.5106 22.032 16.2506 22.264 15.9386C22.496 15.6266 22.672 15.2706 22.792 14.8706C22.912 14.4706 22.972 14.0466 22.972 13.5986C22.972 12.9426 22.852 12.3586 22.612 11.8466C22.38 11.3426 22.06 10.9186 21.652 10.5746C21.244 10.2386 20.764 9.98255 20.212 9.80655C19.668 9.63055 19.084 9.54255 18.46 9.54255C17.836 9.54255 17.252 9.62255 16.708 9.78255C16.164 9.95055 15.692 10.1985 15.292 10.5265C14.892 10.8545 14.576 11.2665 14.344 11.7625C14.12 12.2586 14.008 12.8386 14.008 13.5026C14.008 14.5986 14.308 15.4626 14.908 16.0946C15.508 16.7266 16.348 17.0986 17.428 17.2106L17.428 16.0706C17.076 16.0466 16.748 15.9746 16.444 15.8545C16.14 15.7346 15.876 15.5666 15.652 15.3505C15.436 15.1426 15.264 14.8906 15.136 14.5946C15.016 14.3066 14.956 13.9746 14.956 13.5985C14.956 13.0865 15.052 12.6465 15.244 12.2786C15.436 11.9106 15.692 11.6065 16.012 11.3665C16.34 11.1346 16.72 10.9626 17.152 10.8506C17.592 10.7386 18.056 10.6826 18.544 10.6826C18.992 10.6826 19.424 10.7386 19.84 10.8506C20.256 10.9626 20.624 11.1346 20.944 11.3666C21.272 11.6066 21.532 11.9066 21.724 12.2666C21.916 12.6346 22.012 13.0746 22.012 13.5866C22.012 14.1866 21.86 14.7026 21.556 15.1346C21.252 15.5746 20.796 15.8586 20.188 15.9866ZM22.768 18.6227L14.2 18.6227L14.2 19.7627L17.86 19.7627L17.86 22.5467C17.86 22.8267 17.816 23.0507 17.728 23.2187C17.648 23.3867 17.536 23.5227 17.392 23.6267C17.256 23.7307 17.092 23.8067 16.9 23.8547C16.716 23.9027 16.52 23.9427 16.312 23.9747C16.104 24.0147 15.892 24.0387 15.676 24.0467C15.46 24.0547 15.256 24.0627 15.064 24.0707C14.88 24.0787 14.712 24.0947 14.56 24.1187C14.408 24.1507 14.288 24.2067 14.2 24.2867L14.2 25.5587C14.344 25.4387 14.508 25.3467 14.692 25.2827C14.884 25.2267 15.084 25.1827 15.292 25.1507C15.5 25.1187 15.712 25.0987 15.928 25.0907C16.144 25.0827 16.356 25.0707 16.564 25.0547C16.772 25.0307 16.972 24.9947 17.164 24.9467C17.356 24.9067 17.528 24.8387 17.68 24.7427C17.84 24.6547 17.976 24.5307 18.088 24.3707C18.2 24.2187 18.28 24.0187 18.328 23.7707L18.352 23.7707C18.496 24.2907 18.764 24.6667 19.156 24.8987C19.548 25.1387 20.004 25.2587 20.524 25.2587C21.22 25.2587 21.768 25.0267 22.168 24.5627C22.568 24.1067 22.768 23.4707 22.768 22.6547L22.768 18.6227ZM18.82 22.1387L18.82 19.7627L21.808 19.7627L21.808 22.5947C21.808 23.1307 21.672 23.5187 21.4 23.7587C21.128 23.9987 20.776 24.1187 20.344 24.1187C20.032 24.1187 19.776 24.0627 19.576 23.9507C19.384 23.8467 19.228 23.7027 19.108 23.5187C18.996 23.3427 18.92 23.1347 18.88 22.8947C18.84 22.6547 18.82 22.4027 18.82 22.1387ZM18.484 27.4976C18.916 27.4976 19.34 27.5536 19.756 27.6656C20.18 27.7776 20.56 27.9536 20.896 28.1936C21.232 28.4336 21.5 28.7416 21.7 29.1176C21.908 29.4936 22.012 29.9416 22.012 30.4616C22.012 30.9816 21.908 31.4296 21.7 31.8056C21.5 32.1816 21.232 32.4896 20.896 32.7296C20.56 32.9696 20.18 33.1456 19.756 33.2576C19.34 33.3696 18.916 33.4256 18.484 33.4256C18.052 33.4256 17.624 33.3696 17.2 33.2576C16.784 33.1456 16.408 32.9696 16.072 32.7295C15.736 32.4896 15.464 32.1816 15.256 31.8056C15.056 31.4296 14.956 30.9816 14.956 30.4616C14.956 29.9416 15.056 29.4936 15.256 29.1175C15.464 28.7416 15.736 28.4336 16.072 28.1936C16.408 27.9536 16.784 27.7776 17.2 27.6655C17.624 27.5535 18.052 27.4975 18.484 27.4976ZM18.484 26.3576C17.9 26.3576 17.336 26.4415 16.792 26.6095C16.256 26.7855 15.78 27.0455 15.364 27.3895C14.948 27.7335 14.616 28.1615 14.368 28.6735C14.128 29.1855 14.008 29.7816 14.008 30.4616C14.008 31.1416 14.128 31.7376 14.368 32.2496C14.616 32.7616 14.948 33.1896 15.364 33.5336C15.78 33.8776 16.256 34.1336 16.792 34.3016C17.336 34.4776 17.9 34.5656 18.484 34.5656C19.068 34.5656 19.628 34.4776 20.164 34.3016C20.708 34.1336 21.188 33.8776 21.604 33.5336C22.02 33.1896 22.352 32.7616 22.6 32.2496C22.848 31.7376 22.972 31.1416 22.972 30.4616C22.972 29.7816 22.848 29.1856 22.6 28.6736C22.352 28.1616 22.02 27.7336 21.604 27.3896C21.188 27.0456 20.708 26.7856 20.164 26.6096C19.628 26.4416 19.068 26.3576 18.484 26.3576ZM22.768 35.9547L14.2 35.9547L14.2 41.6307L15.16 41.6307L15.16 37.0947L22.768 37.0947L22.768 35.9547ZM22.768 42.6227L14.2 42.6227L14.2 48.2987L15.16 48.2987L15.16 43.7627L22.768 43.7627L22.768 42.6227Z" fill="#EDEDF5"></path> </svg> 